# xmcd CD database file
#
# Track frame offsets:
#	150
#	19098
#	33283
#	47443
#	63208
#	75942
#	89353
#	106067
#	116537
#	164078
#
# Disc length: 2431 seconds
#
# Revision: 1
# Processed by: cddbd v1.5.1PL0 Copyright (c) Steve Scherf et al.
# Submitted via: Feurio! 1.68 - http://www.feurio.com
#
DISCID=6b097d0a
DTITLE=Gorerotted - A New Dawn For The Dead
DYEAR=2005
DGENRE=Death Metal
TTITLE0=Everything Went Black
TTITLE1=Pain As A Prelude To Death
TTITLE2=Nervous Gibbering Wreck
TTITLE3=Adding Insult To Injury
TTITLE4=Fable Of Filth
TTITLE5=Dead Drunk
TTITLE6=A Very Grave Business
TTITLE7=Horrorday In Haiti
TTITLE8=Selection And Dissection Of Parts For Resurrection
TTITLE9=Data
EXTD=
EXTT0=
EXTT1=
EXTT2=
EXTT3=
EXTT4=
EXTT5=
EXTT6=
EXTT7=
EXTT8=
EXTT9=
PLAYORDER=
